<?xml version="1.0" standalone="no"?>
<!DOCTYPE svg PUBLIC "-//W3C//DTD SVG 20010904//EN"
 "http://www.w3.org/TR/2001/REC-SVG-20010904/DTD/svg10.dtd">
<svg version="1.0" xmlns="http://www.w3.org/2000/svg"
 width="127.000000pt" height="127.000000pt" viewBox="0 0 127.000000 127.000000"
 preserveAspectRatio="xMidYMid meet">
<metadata>
Created by potrace 1.14, written by Peter Selinger 2001-2017
</metadata>
<g transform="translate(0.000000,127.000000) scale(0.100000,-0.100000)"
fill="#000000" stroke="none">
<path d="M606 1252 c-3 -5 -16 -7 -29 -5 -14 3 -31 -2 -39 -11 -9 -8 -18 -12
-22 -9 -3 4 -6 1 -6 -5 0 -7 -3 -11 -7 -11 -21 3 -31 -4 -50 -38 -11 -21 -20
-48 -18 -60 1 -13 -1 -23 -5 -23 -3 0 -7 -20 -7 -45 -1 -25 -2 -46 -3 -47 -6
-9 -4 -98 2 -98 4 0 11 -12 14 -27 4 -16 12 -31 18 -35 7 -5 6 -8 -4 -8 -13 0
-13 -1 0 -10 8 -5 10 -10 4 -10 -5 0 -9 -15 -8 -32 1 -18 -2 -39 -8 -45 -7 -9
-7 -13 1 -13 8 0 9 -6 3 -17 -4 -10 -7 -28 -6 -40 0 -13 -3 -23 -8 -23 -5 0
-8 -6 -6 -12 2 -15 -18 -78 -38 -116 -8 -15 -14 -22 -15 -17 0 6 -4 0 -9 -13
-7 -17 -5 -27 10 -42 22 -22 25 -41 10 -56 -6 -6 -11 -27 -12 -47 -1 -20 -4
-37 -7 -37 -4 0 -7 -9 -7 -20 0 -10 2 -17 5 -15 5 6 37 -38 33 -45 -1 -3 -24
-6 -52 -7 -27 0 -58 -1 -68 -2 -42 -2 -99 -80 -86 -116 4 -8 1 -15 -5 -15 -7
0 4 -17 24 -38 l37 -37 392 0 c420 0 409 -1 430 50 15 34 14 86 -1 98 -8 7
-24 21 -36 32 -12 11 -33 20 -47 19 -14 0 -29 2 -35 5 -5 2 -23 5 -40 5 -21 1
-29 5 -26 16 10 40 12 140 2 140 -6 0 -8 6 -5 14 3 7 16 12 29 10 28 -3 59 33
70 79 4 15 11 27 15 27 5 0 11 8 14 18 4 11 18 25 31 32 14 7 23 16 20 18 -3
3 0 11 6 19 6 7 8 13 4 13 -4 0 -2 7 5 14 6 8 14 28 16 44 4 24 1 31 -17 35
-11 3 -18 10 -14 16 3 6 1 11 -4 11 -6 0 -10 4 -9 8 4 14 -44 72 -58 72 -8 0
-14 5 -14 10 0 6 -7 10 -15 10 -8 0 -15 5 -15 11 0 5 -5 7 -10 4 -6 -3 -13 1
-16 9 -3 9 -10 14 -14 11 -11 -7 -42 43 -35 55 3 6 2 10 -4 10 -5 0 -8 8 -6
18 2 9 4 17 5 17 1 0 3 10 4 23 2 12 0 22 -4 22 -4 0 -6 18 -5 40 1 23 -2 43
-7 46 -4 3 -6 10 -3 15 4 5 1 9 -6 9 -7 0 -9 3 -6 7 4 3 2 12 -4 20 -6 7 -8
13 -4 13 4 0 -6 13 -23 29 -16 16 -28 32 -24 35 3 3 -4 6 -16 6 -11 0 -22 5
-24 10 -2 6 -27 13 -57 16 -30 2 -58 7 -62 10 -4 2 -10 0 -13 -4z"/>
<path d="M315 270 c-3 -6 1 -7 9 -4 18 7 21 14 7 14 -6 0 -13 -4 -16 -10z"/>
<path d="M900 251 c0 -10 19 -25 25 -20 1 2 -3 10 -11 17 -8 7 -14 8 -14 3z"/>
</g>
</svg>
